<?xml version="1.0" encoding="utf-8"?>
<!-- Generator: Adobe Illustrator 19.0.0, SVG Export Plug-In . SVG Version: 6.00 Build 0)  -->
<svg version="1.1" id="Layer_1" xmlns="http://www.w3.org/2000/svg" xmlns:xlink="http://www.w3.org/1999/xlink" x="0px" y="0px"
	 viewBox="-1.7 140.8 529.2 72.9" style="enable-background:new -1.7 140.8 529.2 72.9;" xml:space="preserve">
<style type="text/css">
	.st0{fill:#3AAA35;}
	.st1{display:none;}
	.st2{fill:#008D36;}
	.st3{enable-background:new    ;}
	.st4{fill:#EDEDED;}
</style>
<g id="Ebene_2">
	<path class="st0" d="M55.4,186.5c0,0,1.2,5.2,12.1,9.6c2.7,7.8,8.6,17.6,16.8,17.6c5.6,0,20.4-3.2,20.4-36.3S86.2,141,86.2,141
		s-7.7-1-8.1,2.1c-2.3,1.2-26.6,1.1-26.6,1.1l0,0c0,0-24.3,0.1-26.6-1.1c-0.4-3.1-8.1-2.1-8.1-2.1s-18.5,3.1-18.5,36.3
		s14.8,36.3,20.4,36.3c8.2,0,14-9.8,16.8-17.6c10.9-4.4,12.1-9.6,12.1-9.6h7.8V186.5z"/>
</g>
<g id="Ebene_3" class="st1">
</g>
<g id="Ebene_4">
	<circle cx="36.5" cy="184.9" r="11.2"/>
	<circle cx="66.4" cy="184.9" r="11.2"/>
	<rect x="16" y="166.5" width="4" height="4.8"/>
	<rect x="16" y="156.9" width="4" height="4.4"/>
	<rect x="10.5" y="161.9" width="4.8" height="4"/>
	<rect x="20.6" y="161.9" width="4.8" height="4"/>
	<circle class="st2" cx="51.5" cy="156.3" r="5.8"/>
	<circle cx="80.8" cy="163.9" r="3.2"/>
	<circle cx="93.9" cy="163.9" r="3.2"/>
	<circle cx="87.4" cy="170.5" r="3.2"/>
	<circle cx="87.4" cy="157.3" r="3.2"/>
	<rect x="62.7" y="160.3" width="5.7" height="1.6"/>
	<rect x="35.3" y="160.3" width="5.7" height="1.6"/>
</g>
<g id="Ebene_5">
	<g class="st3">
		<path class="st4" d="M129.2,163c7,0,11,3.4,11,9.6c0,6.4-4,10.1-11,10.1h-5v7.7h-7V163H129.2z M124.2,177.2h4.6
			c3.1,0,4.8-1.5,4.8-4.4c0-2.9-1.8-4.3-4.8-4.3h-4.6V177.2z"/>
		<path class="st4" d="M150.8,163.2c0,2.1-1.5,3.6-3.6,3.6s-3.6-1.5-3.6-3.6c0-2.1,1.5-3.6,3.6-3.6S150.8,161.1,150.8,163.2z
			 M143.8,190.4v-21.1h6.7v21.1H143.8z"/>
		<path class="st4" d="M175.9,181.6H161c0.7,2.5,2.5,3.9,5,3.9c1.8,0,3.6-0.7,5.1-2.2l3.6,3.5c-2.2,2.3-5.3,3.7-9.2,3.7
			c-6.9,0-11.2-4.3-11.2-10.7c0-6.5,4.5-10.8,11-10.8C172.7,169,176.3,173.9,175.9,181.6z M169.4,178c0-2.6-1.6-4.3-4.1-4.3
			c-2.3,0-4,1.7-4.4,4.3H169.4z"/>
		<path class="st4" d="M193.2,189.2c-1.5,0.9-3.6,1.4-5.6,1.4c-4.1,0-7-2.3-7-6.7v-9.3h-2.9v-4.4h2.9v-5.9h6.7v5.8h5.5v4.5h-5.5v8.3
			c0,1.6,0.7,2.3,2,2.3c0.7,0,1.6-0.3,2.6-0.7L193.2,189.2z"/>
		<path class="st4" d="M218,165.7l-2.6,5.4c-2.9-1.7-6.5-2.9-8.8-2.9c-1.8,0-3,0.7-3,2c0,4.7,14.5,2,14.5,11.9c0,5.5-4.9,8.4-11,8.4
			c-4.6,0-9.3-1.7-12.5-4.4l2.7-5.4c2.8,2.5,7,4.1,9.9,4.1c2.2,0,3.6-0.8,3.6-2.4c0-4.9-14.5-2-14.5-11.7c0-5.1,4.3-8.3,10.9-8.3
			C211.1,162.6,215.1,163.9,218,165.7z"/>
		<path class="st4" d="M257.6,177.1v13.3h-6.7v-11.4c0-2.5-1.4-4-3.6-4c-2.5,0.1-4.1,2.2-4.1,5v10.5h-6.8v-11.4c0-2.5-1.4-4-3.6-4
			c-2.6,0.1-4.2,2.2-4.2,5v10.5h-6.7v-21.1h6.7v3.5c1.4-2.5,3.9-3.8,7-3.8c3.4,0,6,1.8,7,4.8c1.4-3.1,4-4.7,7.4-4.8
			C254.6,168.9,257.6,172.1,257.6,177.1z"/>
		<path class="st4" d="M269.4,163.2c0,2.1-1.5,3.6-3.6,3.6s-3.6-1.5-3.6-3.6c0-2.1,1.5-3.6,3.6-3.6S269.4,161.1,269.4,163.2z
			 M262.4,190.4v-21.1h6.7v21.1H262.4z"/>
		<path class="st4" d="M294.5,181.6h-14.8c0.7,2.5,2.5,3.9,5,3.9c1.8,0,3.6-0.7,5.1-2.2l3.6,3.5c-2.2,2.3-5.3,3.7-9.2,3.7
			c-6.9,0-11.2-4.3-11.2-10.7c0-6.5,4.5-10.8,11-10.8C291.3,169,295,173.9,294.5,181.6z M288,178c0-2.6-1.6-4.3-4.1-4.3
			c-2.3,0-4,1.7-4.4,4.3H288z"/>
		<path class="st4" d="M311.8,189.2c-1.5,0.9-3.6,1.4-5.6,1.4c-4.1,0-7-2.3-7-6.7v-9.3h-2.9v-4.4h2.9v-5.9h6.7v5.8h5.5v4.5h-5.5v8.3
			c0,1.6,0.7,2.3,2,2.3c0.7,0,1.6-0.3,2.6-0.7L311.8,189.2z"/>
		<path class="st4" d="M331.3,168.4v6.3h12.3v5.5h-12.3v10.1h-7V163h20.3v5.5H331.3z"/>
		<path class="st4" d="M366.6,176.6v13.8H360v-2.4c-1.4,1.8-3.6,2.7-6.5,2.7c-4.5,0-7.2-2.7-7.2-6.6c0-4,2.9-6.3,8.1-6.4h5.6v-0.3
			c0-2.1-1.4-3.3-4.1-3.3c-1.8,0-4.1,0.6-6.3,1.8l-1.9-4.5c3.3-1.5,6.3-2.4,9.8-2.4C363.2,168.9,366.6,171.8,366.6,176.6z
			 M360,183.2v-1.9h-4.3c-2,0-3.1,0.7-3.1,2.3c0,1.5,1.1,2.5,3,2.5C357.7,186.1,359.5,184.9,360,183.2z"/>
		<path class="st4" d="M393,177.1v13.3h-6.7v-11.4c0-2.5-1.4-4-3.7-4c-2.5,0-4,1.8-4.3,4.3v11.2h-6.8v-21.1h6.8v3.4
			c1.5-2.5,3.9-3.7,7-3.8C389.9,168.9,393,172.1,393,177.1z"/>
		<path class="st4" d="M421.5,167.3l-4,4.8c-1.8-2.2-4.5-3.6-6.9-3.6c-4.3,0-7.6,3.4-7.6,7.9c0,4.6,3.3,8.1,7.6,8.1
			c2.3,0,5-1.3,6.9-3.2l4.1,4.3c-2.9,3-7.3,5-11.3,5c-8.3,0-14.4-6.1-14.4-14.1c0-7.9,6.3-13.9,14.6-13.9
			C414.5,162.7,418.7,164.5,421.5,167.3z"/>
		<path class="st4" d="M424.9,190.4v-29.1h6.8v29.1H424.9z"/>
		<path class="st4" d="M457.8,190.4H451v-3.5c-1.4,2.5-3.8,3.8-6.9,3.8c-4.6,0-7.6-3.1-7.6-8.1v-13.3h6.8v11.4c0,2.5,1.4,4,3.5,4
			c2.6,0,4.1-2.2,4.1-5v-10.4h6.8V190.4z"/>
		<path class="st4" d="M486.4,179.9c0,6.4-3.8,10.7-9.7,10.7c-2.7,0-5-1.1-6.5-3.1v2.8h-6.8v-29.1h6.8V172c1.5-1.9,3.6-3,6.3-3
			C482.4,169,486.4,173.4,486.4,179.9z M479.6,179.7c0-3.2-1.9-5.5-4.7-5.5c-2.7,0-4.7,2.3-4.7,5.5c0,3.3,1.9,5.5,4.7,5.5
			C477.6,185.2,479.6,183,479.6,179.7z"/>
	</g>
	<g class="st3">
		<path class="st0" d="M503.5,186.1h-7.2c0.3,1.2,1.2,1.9,2.4,1.9c0.9,0,1.8-0.4,2.5-1.1l1.7,1.7c-1.1,1.1-2.6,1.8-4.5,1.8
			c-3.4,0-5.5-2.1-5.5-5.2c0-3.2,2.2-5.3,5.4-5.3C501.9,180,503.7,182.3,503.5,186.1z M500.3,184.3c0-1.3-0.8-2.1-2-2.1
			c-1.1,0-1.9,0.8-2.1,2.1H500.3z"/>
		<path class="st0" d="M507.9,188.9c0,1-0.7,1.6-1.6,1.6c-0.9,0-1.6-0.6-1.6-1.6c0-0.9,0.6-1.6,1.6-1.6
			C507.2,187.3,507.9,188,507.9,188.9z"/>
		<path class="st0" d="M513.8,190.4l-5.2-13.4h3.6l3.4,9.8l3.4-9.8h3.5l-5.3,13.4H513.8z"/>
		<path class="st0" d="M525.8,188.9c0,1-0.7,1.6-1.6,1.6c-0.9,0-1.6-0.6-1.6-1.6c0-0.9,0.6-1.6,1.6-1.6
			C525.1,187.3,525.8,188,525.8,188.9z"/>
	</g>
</g>
<g id="Ebene_6">
</g>
</svg>
